<svg preserveAspectRatio="none" width="100%" height="100%" overflow="visible" style="display: block;" viewBox="0 0 251.563 250.998" fill="none" xmlns="http://www.w3.org/2000/svg">
<g id="Group 41984" opacity="0.08">
<path id="Path 60581" d="M2.52471 102.51C20.1007 100.476 24.6715 117.717 36.7589 124.731C39.6117 122.703 42.3069 120.462 44.8213 118.027C65.1199 95.1982 79.2539 94.9316 98.9385 117.19C100.297 118.728 101.419 121.246 103.038 121.599C106.121 122.616 109.458 122.546 112.496 121.401C115.564 118.706 118.274 115.627 120.558 112.241C134.345 97.1084 152.082 97.127 165.98 112.21C166.328 112.588 166.644 112.991 166.985 113.376C178.849 126.79 178.849 126.79 190.441 113.605C205.604 96.3518 224.129 96.513 238.753 114.443C246.344 123.745 256.341 132.626 248.893 147.666C231.211 151.188 226.566 133.234 213.784 125.066C210.448 128.589 206.962 131.957 203.83 135.64C188.22 154.153 170.111 154.451 154.451 136.372C151.778 133.271 149.025 130.27 146.166 127.367C145.545 126.747 144.305 126.697 141.539 125.811C138.438 129.321 134.86 133.383 131.281 137.458C117.197 153.527 99.0812 153.812 84.8355 138.109C81.1144 134.016 77.5856 129.743 72.6365 124C68.2952 128.595 64.8284 131.994 61.6965 135.69C45.5717 154.742 27.5864 154.519 11.3871 135.182C3.67205 125.99 -4.05544 117.023 2.51231 102.516" fill="var(--fill-0, #2A2F73)"/>
<path id="Path 60582" d="M248.446 249.719C231.341 250.227 226.2 235.15 214.608 226.04C210.887 229.761 207.253 232.955 204.133 236.583C187.479 255.838 170.687 255.803 153.756 236.478C150.829 233.135 147.684 229.99 143.38 225.42C138.648 230.518 134.877 234.425 131.274 238.487C116.694 254.928 100.129 255.189 85.0147 239.107C81.2377 235.088 77.5042 231.045 72.4435 225.569C67.6991 230.573 63.8788 234.375 60.3003 238.406C45.7322 254.829 28.8942 255.151 14.0098 239.231C-1.14132 223.02 -1.82351 220.936 2.70384 203.943C10.6546 201.561 16.3044 206.076 21.4706 211.062C26.4693 215.894 30.9532 221.265 36.8574 227.696C41.6638 222.251 45.2547 218.12 48.9137 214.052C63.4198 197.927 80.9028 197.896 95.2849 213.922C98.944 218.002 102.498 222.182 107.441 227.869C112.266 222.561 115.925 218.567 119.522 214.554C134.605 197.685 151.933 197.685 166.885 214.61C170.203 218.368 173.453 222.195 178.185 227.634C182.526 223.206 186.098 219.962 189.199 216.315C205.516 197.09 223.142 197.09 239.521 216.315C247.584 225.767 256.266 234.958 248.446 249.663" fill="var(--fill-0, #2A2F73)"/>
<path id="Path 60583" d="M70.0616 24.15C57.658 39.6174 45.3659 57.0198 21.9539 43.9959C14.4764 40.2416 8.52345 34.0221 5.09991 26.3875C1.67637 18.7528 0.991995 10.1708 3.16235 2.09008C11.2682 -0.46508 16.9553 4.11188 22.078 9.20979C26.7108 13.8178 30.6985 19.0707 35.9081 25.1237C39.3578 22.5691 42.4673 19.5847 45.1613 16.2427C47.7605 11.4689 51.5864 7.47505 56.2441 4.67316C60.9019 1.87128 66.2229 0.362817 71.6581 0.303409C77.0934 0.244001 82.446 1.63579 87.1639 4.3352C91.8818 7.03461 95.7941 10.9439 98.4971 15.6597C100.513 19.2072 102.733 22.6368 105.17 26.6246C119.54 15.6287 125.556 -0.403062 143.541 0.105489C160.522 0.589233 167.344 14.2767 178.402 25.44C182.935 20.6274 186.731 16.8008 190.291 12.7759C205.473 -4.38464 224.19 -4.26061 238.907 13.1666C252.755 29.5704 252.756 29.5704 248.966 46.3898C230.739 50.4148 226.64 31.7659 213.833 23.5981C210.229 27.5362 206.558 31.4124 203.035 35.425C187.723 52.8708 169.477 52.8894 154.5 35.425C151.25 31.6357 148.025 27.8215 143.87 22.9469C140.443 25.6655 137.309 28.7334 134.517 32.1008C120.464 54.0181 94.379 53.1871 81.2311 32.659C79.4252 30.1791 77.3447 27.9113 75.0293 25.8989C74.4091 25.2788 73.1687 25.2105 70.0244 24.1562" fill="var(--fill-0, #2A2F73)"/>
<path id="Path 60584" d="M36.969 76.4614C42.0483 70.5325 45.5461 66.2532 49.2486 62.16C63.3144 46.612 80.2578 46.3701 94.5655 61.5398C98.6897 65.8811 102.572 70.5015 107.819 76.3932C112.557 70.9542 116.111 66.8113 119.733 62.7491C134.195 46.4383 151.399 46.1778 166.116 62.0855C169.881 66.1602 173.434 70.4208 178.483 76.1947C182.694 71.655 186.105 68.213 189.249 64.5415C205.653 45.3964 223.179 45.5018 239.62 65.019C247.218 74.0303 255.826 82.7997 249.19 97.0701C231.316 101.306 227 82.4276 213.97 75.066C210.18 78.8739 206.211 82.5578 202.583 86.5518C187.469 103.179 170.222 103.191 155.052 86.4712C151.709 82.7501 148.354 79.0972 143.783 74.0675C138.859 79.029 134.915 82.7501 131.218 86.6945C115.714 103.315 98.9688 103.173 83.7929 86.1797C82.0812 84.2695 80.5493 82.1981 78.8872 80.2321C74.0126 74.4458 69.4232 75.2707 64.8959 80.7531C62.0928 84.4306 59.0296 87.9022 55.7295 91.1412C53.3033 93.6592 50.3993 95.6682 47.1875 97.0506C43.9756 98.4329 40.5203 99.161 37.0238 99.1922C33.5272 99.2234 30.0595 98.5571 26.8235 97.2322C23.5875 95.9073 20.6482 93.9504 18.1774 91.4761C8.93045 82.378 -2.44995 73.6024 0.464913 57.7877C0.595 56.7683 0.855544 55.7699 1.24014 54.817C1.84253 53.8163 2.53372 52.8719 3.30536 51.9952C6.83328 51.5399 10.4187 52.0365 13.6902 53.4334C16.9616 54.8303 19.7999 57.0767 21.9109 59.9397C26.5251 64.6159 30.7857 69.6456 36.9938 76.4862" fill="var(--fill-0, #2A2F73)"/>
<path id="Path 60585" d="M179.19 177.497C193.324 161.322 205.535 142.233 229.599 156.46C236.796 160.412 242.555 166.543 246.049 173.974C249.542 181.404 250.59 189.751 249.041 197.814C230.901 201.802 226.398 183.823 213.97 175.004C210.292 179.041 206.633 182.917 203.135 186.93C187.891 204.425 169.496 204.487 154.581 187.035C151.325 183.221 148.094 179.382 143.523 174.011C138.928 179.209 135.318 183.234 131.74 187.308C116.7 204.574 98.1877 204.351 83.204 186.719C79.9914 182.948 76.7355 179.209 72.8903 174.749C70.1848 176.896 67.6164 179.21 65.2001 181.677C43.8471 207.104 28.1688 206.447 6.99575 180.244C3.59691 176.752 1.34973 172.303 0.556902 167.495C-0.235929 162.687 0.463685 157.751 2.56146 153.353C20.2491 150.903 24.6028 168.188 37.2918 176.424C40.9136 172.486 44.5789 168.603 48.1326 164.64C63.8543 146.996 80.8349 147.114 96.5069 165C99.2047 168.101 101.952 171.103 104.811 174.03C105.431 174.7 106.672 174.836 109.221 175.891C112.812 171.841 116.7 167.276 120.781 162.867C134.859 147.759 152.379 147.864 166.222 163.078C170.216 167.469 174.148 171.915 179.171 177.515" fill="var(--fill-0, #2A2F73)"/>
</g>
</svg>
